<?xml version="1.0" encoding="UTF-8" standalone="no"?>
<!DOCTYPE svg PUBLIC "-//W3C//DTD SVG 1.1//EN"
 "http://www.w3.org/Graphics/SVG/1.1/DTD/svg11.dtd">
<!-- Generated by graphviz version 5.0.0 (20220707.1540)
 -->
<!-- Title: StorageDiagram Pages: 1 -->
<svg width="1781pt" height="175pt"
 viewBox="0.00 0.00 1780.66 174.60" xmlns="http://www.w3.org/2000/svg" xmlns:xlink="http://www.w3.org/1999/xlink">
<g id="graph0" class="graph" transform="scale(1 1) rotate(0) translate(4 170.6)">
<title>StorageDiagram</title>
<polygon fill="white" stroke="transparent" points="-4,4 -4,-170.6 1776.66,-170.6 1776.66,4 -4,4"/>
<!-- 3 -->
<g id="node1" class="node">
<title>3</title>
<polygon fill="#f2f2f2" stroke="black" points="0,-91.7 0,-166.1 426.86,-166.1 426.86,-91.7 0,-91.7"/>
<text text-anchor="middle" x="213.43" y="-149.5" font-family="Courier New" font-size="14.00">Storage &lt;&lt;Contract&gt;&gt;</text>
<polyline fill="none" stroke="black" points="0,-141.3 426.86,-141.3 "/>
<text text-anchor="middle" x="24.8" y="-124.7" font-family="Courier New" font-size="14.00">slot</text>
<polyline fill="none" stroke="black" points="0,-116.5 49.61,-116.5 "/>
<text text-anchor="middle" x="24.8" y="-99.9" font-family="Courier New" font-size="14.00">0</text>
<polyline fill="none" stroke="black" points="49.61,-91.7 49.61,-141.3 "/>
<text text-anchor="middle" x="238.23" y="-124.7" font-family="Courier New" font-size="14.00">type: &lt;inherited contract&gt;.variable (bytes)</text>
<polyline fill="none" stroke="black" points="49.61,-116.5 426.86,-116.5 "/>
<text text-anchor="middle" x="238.23" y="-99.9" font-family="Courier New" font-size="14.00">StructDefiner.MyStruct[]: structs (32)</text>
</g>
<!-- 2 -->
<g id="node3" class="node">
<title>2</title>
<polygon fill="#f2f2f2" stroke="black" points="462.86,-58.3 462.86,-149.5 1033.35,-149.5 1033.35,-58.3 462.86,-58.3"/>
<text text-anchor="middle" x="748.11" y="-132.9" font-family="Courier New" font-size="14.00">StructDefiner.MyStruct[]: structs &lt;&lt;Array&gt;&gt;</text>
<text text-anchor="middle" x="748.11" y="-116.1" font-family="Courier New" font-size="14.00">0x290decd9548b62a8d60345a988386fc84ba6bc95484008f6362f93160ef3e563</text>
<polyline fill="none" stroke="black" points="462.86,-107.9 1033.35,-107.9 "/>
<text text-anchor="middle" x="561.07" y="-91.3" font-family="Courier New" font-size="14.00">offset</text>
<polyline fill="none" stroke="black" points="462.86,-83.1 659.27,-83.1 "/>
<text text-anchor="middle" x="561.07" y="-66.5" font-family="Courier New" font-size="14.00">0&#45;2</text>
<polyline fill="none" stroke="black" points="659.27,-58.3 659.27,-107.9 "/>
<text text-anchor="middle" x="846.19" y="-91.3" font-family="Courier New" font-size="14.00">type: variable (bytes)</text>
<polyline fill="none" stroke="black" points="659.27,-83.1 1033.11,-83.1 "/>
<text text-anchor="middle" x="846.19" y="-66.5" font-family="Courier New" font-size="14.00">StructDefiner.MyStruct (96)</text>
</g>
<!-- 3&#45;&gt;2 -->
<g id="edge1" class="edge">
<title>3:6&#45;&gt;2</title>
<path fill="none" stroke="black" d="M426.86,-103.9C435.26,-103.9 443.77,-103.9 452.37,-103.9"/>
<polygon fill="black" stroke="black" points="452.49,-107.4 462.49,-103.9 452.49,-100.4 452.49,-107.4"/>
</g>
<!-- 1 -->
<g id="node2" class="node">
<title>1</title>
<polygon fill="#f2f2f2" stroke="black" points="1069.35,-0.5 1069.35,-141.3 1772.66,-141.3 1772.66,-0.5 1069.35,-0.5"/>
<text text-anchor="middle" x="1421.01" y="-124.7" font-family="Courier New" font-size="14.00">StructDefiner.MyStruct &lt;&lt;Struct&gt;&gt;</text>
<text text-anchor="middle" x="1421.01" y="-107.9" font-family="Courier New" font-size="14.00">0x290decd9548b62a8d60345a988386fc84ba6bc95484008f6362f93160ef3e563</text>
<polyline fill="none" stroke="black" points="1069.35,-99.7 1772.66,-99.7 "/>
<text text-anchor="middle" x="1102.56" y="-83.1" font-family="Courier New" font-size="14.00">offset</text>
<polyline fill="none" stroke="black" points="1069.35,-74.9 1135.76,-74.9 "/>
<text text-anchor="middle" x="1102.56" y="-58.3" font-family="Courier New" font-size="14.00">0</text>
<polyline fill="none" stroke="black" points="1069.35,-50.1 1135.76,-50.1 "/>
<text text-anchor="middle" x="1102.56" y="-33.5" font-family="Courier New" font-size="14.00">1</text>
<polyline fill="none" stroke="black" points="1069.35,-25.3 1135.76,-25.3 "/>
<text text-anchor="middle" x="1102.56" y="-8.7" font-family="Courier New" font-size="14.00">2</text>
<polyline fill="none" stroke="black" points="1135.76,-0.5 1135.76,-99.7 "/>
<text text-anchor="middle" x="1454.21" y="-83.1" font-family="Courier New" font-size="14.00">type: variable (bytes)</text>
<polyline fill="none" stroke="black" points="1135.76,-74.9 1772.66,-74.9 "/>
<text text-anchor="middle" x="1454.18" y="-58.3" font-family="Courier New" font-size="14.00">uint256: MyStruct.someField (32)</text>
<polyline fill="none" stroke="black" points="1135.76,-50.1 1772.66,-50.1 "/>
<text text-anchor="middle" x="1256.97" y="-33.5" font-family="Courier New" font-size="14.00">unallocated (12)</text>
<polyline fill="none" stroke="black" points="1378.18,-25.3 1378.18,-50.1 "/>
<text text-anchor="middle" x="1575.01" y="-33.5" font-family="Courier New" font-size="14.00">address: MyStruct.someAddress (20)</text>
<polyline fill="none" stroke="black" points="1135.76,-25.3 1772.66,-25.3 "/>
<text text-anchor="middle" x="1290.79" y="-8.7" font-family="Courier New" font-size="14.00">uint128: MyStruct.oneMoreField (16)</text>
<polyline fill="none" stroke="black" points="1445.81,-0.5 1445.81,-25.3 "/>
<text text-anchor="middle" x="1609.24" y="-8.7" font-family="Courier New" font-size="14.00">uint128: MyStruct.someOtherField (16)</text>
</g>
<!-- 2&#45;&gt;1 -->
<g id="edge2" class="edge">
<title>2:5&#45;&gt;1</title>
<path fill="none" stroke="black" d="M1033.35,-70.9C1041.8,-70.9 1050.34,-70.9 1058.97,-70.9"/>
<polygon fill="black" stroke="black" points="1059.12,-74.4 1069.12,-70.9 1059.12,-67.4 1059.12,-74.4"/>
</g>
</g>
</svg>
