<?xml version="1.0" encoding="UTF-8" standalone="no"?>
<!DOCTYPE svg PUBLIC "-//W3C//DTD SVG 1.1//EN"
 "http://www.w3.org/Graphics/SVG/1.1/DTD/svg11.dtd">
<!-- Generated by graphviz version 5.0.0 (20220707.1540)
 -->
<!-- Title: StorageDiagram Pages: 1 -->
<svg width="1006pt" height="133pt"
 viewBox="0.00 0.00 1006.14 133.20" xmlns="http://www.w3.org/2000/svg" xmlns:xlink="http://www.w3.org/1999/xlink">
<g id="graph0" class="graph" transform="scale(1 1) rotate(0) translate(4 129.2)">
<title>StorageDiagram</title>
<polygon fill="white" stroke="transparent" points="-4,4 -4,-129.2 1002.14,-129.2 1002.14,4 -4,4"/>
<!-- 2 -->
<g id="node1" class="node">
<title>2</title>
<polygon fill="#f2f2f2" stroke="black" points="0,-50.3 0,-124.7 426.86,-124.7 426.86,-50.3 0,-50.3"/>
<text text-anchor="middle" x="213.43" y="-108.1" font-family="Courier New" font-size="14.00">StructDefiner &lt;&lt;Contract&gt;&gt;</text>
<polyline fill="none" stroke="black" points="0,-99.9 426.86,-99.9 "/>
<text text-anchor="middle" x="24.8" y="-83.3" font-family="Courier New" font-size="14.00">slot</text>
<polyline fill="none" stroke="black" points="0,-75.1 49.61,-75.1 "/>
<text text-anchor="middle" x="24.8" y="-58.5" font-family="Courier New" font-size="14.00">0&#45;2</text>
<polyline fill="none" stroke="black" points="49.61,-50.3 49.61,-99.9 "/>
<text text-anchor="middle" x="238.23" y="-83.3" font-family="Courier New" font-size="14.00">type: &lt;inherited contract&gt;.variable (bytes)</text>
<polyline fill="none" stroke="black" points="49.61,-75.1 426.86,-75.1 "/>
<text text-anchor="middle" x="238.22" y="-58.5" font-family="Courier New" font-size="14.00">MyStruct: myStruct (96)</text>
</g>
<!-- 1 -->
<g id="node2" class="node">
<title>1</title>
<polygon fill="#f2f2f2" stroke="black" points="462.86,-0.5 462.86,-124.5 998.14,-124.5 998.14,-0.5 462.86,-0.5"/>
<text text-anchor="middle" x="730.5" y="-107.9" font-family="Courier New" font-size="14.00">MyStruct &lt;&lt;Struct&gt;&gt;</text>
<polyline fill="none" stroke="black" points="462.86,-99.7 998.14,-99.7 "/>
<text text-anchor="middle" x="487.67" y="-83.1" font-family="Courier New" font-size="14.00">slot</text>
<polyline fill="none" stroke="black" points="462.86,-74.9 512.47,-74.9 "/>
<text text-anchor="middle" x="487.67" y="-58.3" font-family="Courier New" font-size="14.00">0</text>
<polyline fill="none" stroke="black" points="462.86,-50.1 512.47,-50.1 "/>
<text text-anchor="middle" x="487.67" y="-33.5" font-family="Courier New" font-size="14.00">1</text>
<polyline fill="none" stroke="black" points="462.86,-25.3 512.47,-25.3 "/>
<text text-anchor="middle" x="487.67" y="-8.7" font-family="Courier New" font-size="14.00">2</text>
<polyline fill="none" stroke="black" points="512.47,-0.5 512.47,-99.7 "/>
<text text-anchor="middle" x="755.31" y="-83.1" font-family="Courier New" font-size="14.00">type: variable (bytes)</text>
<polyline fill="none" stroke="black" points="512.47,-74.9 998.14,-74.9 "/>
<text text-anchor="middle" x="755.09" y="-58.3" font-family="Courier New" font-size="14.00">uint256: someField (32)</text>
<polyline fill="none" stroke="black" points="512.47,-50.1 998.14,-50.1 "/>
<text text-anchor="middle" x="614.68" y="-33.5" font-family="Courier New" font-size="14.00">unallocated (12)</text>
<polyline fill="none" stroke="black" points="716.89,-25.3 716.89,-50.1 "/>
<text text-anchor="middle" x="857.41" y="-33.5" font-family="Courier New" font-size="14.00">address: someAddress (20)</text>
<polyline fill="none" stroke="black" points="512.47,-25.3 998.14,-25.3 "/>
<text text-anchor="middle" x="629.69" y="-8.7" font-family="Courier New" font-size="14.00">uint128: oneMoreField (16)</text>
<polyline fill="none" stroke="black" points="746.91,-0.5 746.91,-25.3 "/>
<text text-anchor="middle" x="872.52" y="-8.7" font-family="Courier New" font-size="14.00">uint128: someOtherField (16)</text>
</g>
<!-- 2&#45;&gt;1 -->
<g id="edge1" class="edge">
<title>2:5&#45;&gt;1</title>
<path fill="none" stroke="black" d="M426.86,-62.5C435.27,-62.5 443.8,-62.5 452.42,-62.5"/>
<polygon fill="black" stroke="black" points="452.57,-66 462.57,-62.5 452.57,-59 452.57,-66"/>
</g>
</g>
</svg>
